<?xml version="1.0" encoding="UTF-8"?>
<svg width="20px" height="20px" viewBox="0 0 20 20" version="1.1" xmlns="http://www.w3.org/2000/svg" xmlns:xlink="http://www.w3.org/1999/xlink">
    <!-- Generator: Sketch 51.2 (57519) - http://www.bohemiancoding.com/sketch -->
    <title>Group 27</title>
    <desc>Created with Sketch.</desc>
    <defs></defs>
    <g id="Page-1" stroke="none" stroke-width="1" fill="none" fill-rule="evenodd">
        <g id="Group-27" transform="translate(1.066667, 1.000000)" stroke="#EA002A">
            <path d="M3.13043478,0.25 L5.47826087,0.25" id="Stroke-1" stroke-width="2"></path>
            <path d="M7.82608696,0.25 L10.173913,0.25" id="Stroke-1" stroke-width="2"></path>
            <path d="M12.5217391,0.25 L14.8695652,0.25" id="Stroke-1" stroke-width="2"></path>
            <path d="M17.5510676,17.5148581 C12.411221,18.161714 5.588779,18.161714 0.447823274,17.5148581 C-0.149274425,12.3785283 -0.149274425,7.18857712 0.447823274,2.05035926 C5.58914872,1.40350344 12.4104816,1.40350344 17.5510676,2.05035926 C18.1496441,7.18706666 18.1496441,12.3785283 17.5510676,17.5148581 Z" id="Stroke-7" stroke-width="1.5"></path>
            <path d="M3.13043478,5.47826087 L5.47826087,5.47826087" id="Stroke-9" stroke-width="2"></path>
            <path d="M7.82608696,5.47826087 L10.173913,5.47826087" id="Stroke-11" stroke-width="2"></path>
            <path d="M12.5217391,5.47826087 L14.8695652,5.47826087" id="Stroke-13" stroke-width="2"></path>
            <path d="M3.13043478,9.39130435 L5.47826087,9.39130435" id="Stroke-15" stroke-width="2"></path>
            <path d="M7.82608696,9.39130435 L10.173913,9.39130435" id="Stroke-17" stroke-width="2"></path>
            <path d="M12.5217391,9.39130435 L14.8695652,9.39130435" id="Stroke-19" stroke-width="2"></path>
            <path d="M3.13043478,13.3043478 L5.47826087,13.3043478" id="Stroke-21" stroke-width="2"></path>
            <path d="M7.82608696,13.3043478 L10.173913,13.3043478" id="Stroke-23" stroke-width="2"></path>
            <path d="M12.5217391,13.3043478 L14.8695652,13.3043478" id="Stroke-25" stroke-width="2"></path>
        </g>
    </g>
</svg>